<svg width="32" height="32" viewBox="0 0 32 32" fill="none" xmlns="http://www.w3.org/2000/svg">
<g clip-path="url(#clip0_40004898_22633)">
<mask id="mask0_40004898_22633" style="mask-type:luminance" maskUnits="userSpaceOnUse" x="0" y="0" width="32" height="32">
<path d="M32 0H0V32H32V0Z" fill="white"/>
</mask>
<g mask="url(#mask0_40004898_22633)">
<path d="M23.4934 14.3335C22.9201 14.3335 22.4667 13.8668 22.4667 13.3068C22.4667 12.8135 21.9734 11.7868 21.1467 10.8935C20.3334 10.0268 19.4401 9.52013 18.6934 9.52013C18.1201 9.52013 17.6667 9.05346 17.6667 8.49346C17.6667 7.93346 18.1334 7.4668 18.6934 7.4668C20.0267 7.4668 21.4267 8.1868 22.6534 9.48013C23.8001 10.6935 24.5334 12.2001 24.5334 13.2935C24.5334 13.8668 24.0667 14.3335 23.4934 14.3335Z" fill="#191E36"/>
<path d="M28.3066 14.3337C27.7333 14.3337 27.2799 13.867 27.2799 13.307C27.2799 8.57366 23.4266 4.73366 18.7066 4.73366C18.1333 4.73366 17.6799 4.26699 17.6799 3.70699C17.6799 3.14699 18.1333 2.66699 18.6933 2.66699C24.5599 2.66699 29.3333 7.44032 29.3333 13.307C29.3333 13.867 28.8666 14.3337 28.3066 14.3337Z" fill="#191E36"/>
<path opacity="0.4" d="M15.7201 18.947L11.3601 23.307C10.8801 22.8803 10.4134 22.4403 9.96008 21.987C8.58675 20.6003 7.34675 19.147 6.24008 17.627C5.14675 16.107 4.26675 14.587 3.62675 13.0803C2.98675 11.5603 2.66675 10.107 2.66675 8.72033C2.66675 7.81366 2.82675 6.94699 3.14675 6.14699C3.46675 5.33366 3.97341 4.58699 4.68008 3.92033C5.53341 3.08033 6.46675 2.66699 7.45341 2.66699C7.82675 2.66699 8.20008 2.74699 8.53341 2.90699C8.88008 3.06699 9.18675 3.30699 9.42675 3.65366L12.5201 8.01366C12.7601 8.34699 12.9334 8.65366 13.0534 8.94699C13.1734 9.22699 13.2401 9.50699 13.2401 9.76033C13.2401 10.0803 13.1467 10.4003 12.9601 10.707C12.7867 11.0137 12.5334 11.3337 12.2134 11.6537L11.2001 12.707C11.0534 12.8537 10.9867 13.027 10.9867 13.2403C10.9867 13.347 11.0001 13.4403 11.0267 13.547C11.0667 13.6537 11.1067 13.7337 11.1334 13.8137C11.3734 14.2537 11.7867 14.827 12.3734 15.5203C12.9734 16.2137 13.6134 16.9203 14.3067 17.627C14.7867 18.0937 15.2534 18.547 15.7201 18.947Z" fill="#191E36"/>
<path d="M29.2936 24.4388C29.2936 24.8121 29.227 25.1988 29.0936 25.5721C29.0536 25.6788 29.0136 25.7854 28.9603 25.8921C28.7336 26.3721 28.4403 26.8254 28.0536 27.2521C27.4003 27.9721 26.6803 28.4921 25.867 28.8254C25.8536 28.8254 25.8403 28.8388 25.827 28.8388C25.0403 29.1588 24.187 29.3321 23.267 29.3321C21.907 29.3321 20.4536 29.0121 18.9203 28.3588C17.387 27.7054 15.8536 26.8254 14.3336 25.7188C13.8136 25.3321 13.2936 24.9454 12.8003 24.5321L17.1603 20.1721C17.5336 20.4521 17.867 20.6654 18.147 20.8121C18.2136 20.8388 18.2936 20.8788 18.387 20.9188C18.4936 20.9588 18.6003 20.9721 18.7203 20.9721C18.947 20.9721 19.1203 20.8921 19.267 20.7454L20.2803 19.7454C20.6136 19.4121 20.9336 19.1588 21.2403 18.9988C21.547 18.8121 21.8536 18.7188 22.187 18.7188C22.4403 18.7188 22.707 18.7721 23.0003 18.8921C23.2936 19.0121 23.6003 19.1854 23.9336 19.4121L28.347 22.5454C28.6936 22.7854 28.9336 23.0654 29.0803 23.3988C29.2136 23.7321 29.2936 24.0654 29.2936 24.4388Z" fill="#191E36"/>
</g>
</g>
<defs>
<clipPath id="clip0_40004898_22633">
<rect width="32" height="32" fill="white"/>
</clipPath>
</defs>
</svg>
