<svg width="20" height="20" viewBox="0 0 20 20" fill="none" xmlns="http://www.w3.org/2000/svg">
<g clip-path="url(#clip0_40004898_22625)">
<mask id="mask0_40004898_22625" style="mask-type:luminance" maskUnits="userSpaceOnUse" x="0" y="0" width="20" height="20">
<path d="M20 0H0V20H20V0Z" fill="white"/>
</mask>
<g mask="url(#mask0_40004898_22625)">
<path d="M10.0001 1.66699C5.40841 1.66699 1.66675 5.40866 1.66675 10.0003C1.66675 14.592 5.40841 18.3337 10.0001 18.3337C14.5917 18.3337 18.3334 14.592 18.3334 10.0003C18.3334 5.40866 14.5917 1.66699 10.0001 1.66699ZM13.2667 10.6253H6.60008C6.25841 10.6253 5.97508 10.342 5.97508 10.0003C5.97508 9.65866 6.25841 9.37533 6.60008 9.37533H13.2667C13.6084 9.37533 13.8917 9.65866 13.8917 10.0003C13.8917 10.342 13.6167 10.6253 13.2667 10.6253Z" fill="white"/>
</g>
</g>
<defs>
<clipPath id="clip0_40004898_22625">
<rect width="20" height="20" fill="white"/>
</clipPath>
</defs>
</svg>
